<svg viewBox="0 0 191 60" fill="none" xmlns="http://www.w3.org/2000/svg">
<g clip-path="url(#clip0)">
<path d="M105.136 16.3521C105.489 15.9692 105.863 15.6055 106.256 15.2626L106.523 15.035C106.623 14.9519 107.048 14.5974 106.597 14.965C106.146 15.3326 106.518 15.0263 106.597 14.965C106.676 14.9037 106.829 14.7943 106.952 14.7112C107.814 14.1203 108.733 13.6175 109.695 13.2103L108.912 13.5385C110.146 13.0261 111.44 12.6718 112.763 12.484L111.887 12.5977C112.818 12.4627 113.761 12.4392 114.697 12.5277L113.822 12.4096C114.27 12.4724 114.711 12.5854 115.134 12.7465L114.351 12.414C115.777 13.0266 116.876 14.1642 118.215 14.9431C119.602 15.7413 121.103 16.324 122.665 16.6715C125.854 17.4005 129.185 17.2032 132.265 16.1027C134.153 15.4032 135.903 14.3784 137.437 13.0747C138.052 12.459 138.398 11.6254 138.4 10.7555C138.393 9.88545 138.048 9.05223 137.437 8.43204C136.037 7.14995 134.204 7.24621 132.799 8.43204C132.677 8.53705 132.55 8.63332 132.431 8.73396C133.219 8.07323 132.782 8.46267 132.589 8.59832C132.396 8.73396 132.108 8.9265 131.863 9.07527C131.346 9.38743 130.808 9.66233 130.252 9.89791L131.036 9.56973C129.914 10.0346 128.737 10.3566 127.535 10.528L128.41 10.4099C127.154 10.5739 125.882 10.5739 124.625 10.4099L125.5 10.5236C124.354 10.3729 123.231 10.0789 122.157 9.64849L122.941 9.97667C122.176 9.64717 121.446 9.24262 120.761 8.76897C120 8.24826 119.309 7.63565 118.517 7.16308C116.176 5.75847 113.555 5.78472 110.947 6.16541C106.944 6.80206 103.267 8.75435 100.497 11.7138C99.3247 12.9697 99.1628 15.1269 100.497 16.3521C101.832 17.5773 103.889 17.6955 105.14 16.3521H105.136Z" fill="white"/>
<path d="M59.1248 4.62077C54.8103 3.03668 50.3205 1.97886 45.7526 1.47025C43.5901 1.21817 41.4142 1.09834 39.2371 1.11144C36.8961 1.11144 34.2794 1.23833 32.3147 2.66482C31.0288 3.55018 30.0586 4.82237 29.5449 6.29668C29.3191 7.0501 29.2443 7.84068 29.3246 8.6231C29.4049 9.40551 29.6389 10.1644 30.0131 10.8562C31.0327 12.8953 33.2118 14.3174 35.2202 15.2538C39.596 17.2885 44.8468 17.9799 49.3538 15.9452C54.2634 13.7135 56.937 7.45625 54.8716 2.41103C54.6166 1.60174 54.0834 0.908839 53.3664 0.455079C52.5992 0.0176041 51.6906 -0.100289 50.8372 0.126899C50.0093 0.351598 49.3014 0.889942 48.8638 1.62777C48.4787 2.35415 48.2074 3.37807 48.5312 4.15257C48.7636 4.72503 48.9281 5.32274 49.0213 5.93349L48.9075 5.05835C48.9884 5.73271 48.9884 6.41433 48.9075 7.08869L49.0213 6.21354C48.9309 6.88772 48.756 7.54782 48.5006 8.17824L48.8331 7.39499C48.6418 7.83815 48.4104 8.2629 48.1418 8.66395C47.7611 9.23279 48.5793 8.13449 48.1418 8.66395C47.9959 8.85213 47.8411 9.0332 47.6779 9.20654C47.5204 9.35969 47.3541 9.50409 47.1878 9.64411C46.8247 9.95916 47.4373 9.42095 47.4591 9.43845C47.364 9.49622 47.272 9.55903 47.1835 9.62661C46.7681 9.90064 46.3287 10.1364 45.8708 10.3311L46.654 9.99855C45.9582 10.2804 45.231 10.4773 44.488 10.5849L45.3632 10.4667C44.0472 10.6374 42.7147 10.6374 41.3988 10.4667L42.2739 10.5849C40.9125 10.3987 39.5803 10.0399 38.3095 9.51722L39.0927 9.84977C38.1748 9.46464 37.2957 8.99285 36.4673 8.44079L36.1916 8.24825C35.9247 8.05135 36.0122 8.11698 36.4542 8.45391C36.3098 8.29201 36.1085 8.16074 35.9553 8.01634C35.8766 7.93758 35.7978 7.85444 35.7278 7.7713C35.509 7.51313 35.579 7.60502 35.9335 8.04697C35.8678 7.85881 35.7016 7.67066 35.614 7.48688L35.9422 8.27013C35.8395 8.02284 35.7661 7.76437 35.7234 7.5L35.8372 8.37515C35.8153 8.1613 35.8153 7.94577 35.8372 7.73192L35.7191 8.60706C35.7581 8.34431 35.8286 8.08722 35.9291 7.84131L35.6009 8.62457C35.6884 8.43641 35.8503 8.24825 35.916 8.0601C35.5615 8.49767 35.4784 8.59394 35.7103 8.34015C35.7847 8.26138 35.8635 8.18262 35.9422 8.10823C36.196 7.88944 36.1041 7.95508 35.6622 8.30514C35.7506 8.23888 35.8427 8.17753 35.9378 8.12136C36.1397 8.00476 36.3487 7.90099 36.5636 7.81068L35.7803 8.14324C36.2985 7.93608 36.8388 7.78925 37.3906 7.70566L36.5154 7.82381C38.1546 7.64731 39.8059 7.61071 41.4513 7.71442C43.1578 7.77568 44.857 7.92153 46.549 8.15199L45.6738 8.03384C49.6724 8.56841 53.5985 9.54884 57.3789 10.9568C58.218 11.1876 59.1143 11.0757 59.8709 10.6458C60.6275 10.2158 61.1823 9.50293 61.4133 8.66395C61.8509 6.79989 60.8489 5.27276 59.1248 4.62953V4.62077Z" fill="white"/>
<path d="M149.65 26.11C147.55 27.9978 145.782 30.2255 144.421 32.6998C143.606 34.1006 143.09 35.6542 142.903 37.2637C142.815 38.136 142.927 39.0168 143.23 39.8394C143.533 40.662 144.02 41.4047 144.653 42.0114C147.313 44.4399 151.238 43.696 154.188 42.2739C156.706 41.0298 158.716 38.9517 159.876 36.3929C160.635 34.7255 161.035 32.9171 161.049 31.0852C161.018 29.1926 160.586 27.3282 159.78 25.6155L154.091 28.9279C155.5 31.1158 157.592 32.4548 160.06 33.2074C162.173 33.8594 164.436 34.0169 166.623 34.227C171.459 34.6645 176.25 34.9314 181.085 34.2532C183.844 33.8607 186.528 33.0568 189.049 31.8684C189.789 31.437 190.33 30.7335 190.559 29.9081C190.785 29.0541 190.666 28.1454 190.226 27.3789C189.189 25.7687 187.408 25.423 185.737 26.2019C185.448 26.3375 185.159 26.4644 184.861 26.5913L185.645 26.2588C183.596 27.0852 181.451 27.6483 179.261 27.9347L180.136 27.8165C177.393 28.1474 174.627 28.2294 171.87 28.0616C169.209 27.9259 166.536 27.7115 163.897 27.3658L164.772 27.484C163.413 27.3311 162.079 27.0031 160.804 26.5082L161.587 26.8407C161.309 26.7221 161.037 26.5892 160.773 26.4425C160.519 26.2981 160.279 26.0793 160.02 25.9568C160.235 26.0575 160.659 26.4863 160.226 26.0969C160.117 25.9962 160.012 25.8912 159.911 25.7862C159.81 25.6812 159.745 25.598 159.662 25.5018C159.504 25.3048 159.596 25.4274 159.946 25.8693L159.775 25.6111C158.843 24.1759 156.822 23.4233 155.286 24.4341C154.549 24.8704 154.008 25.5741 153.776 26.3988C153.594 27.2536 153.711 28.1451 154.109 28.9236L154.183 29.0899L153.851 28.3066C154.173 29.0758 154.395 29.8831 154.511 30.7089L154.398 29.8337C154.498 30.6635 154.498 31.5025 154.398 32.3323L154.516 31.4571C154.4 32.2829 154.182 33.0912 153.868 33.8638L154.196 33.0805C153.975 33.6059 153.705 34.1098 153.391 34.5858C153.251 34.787 152.866 35.2115 153.514 34.4545C153.444 34.5376 153.378 34.6251 153.304 34.7083C153.111 34.94 152.905 35.1606 152.687 35.369C152.49 35.5616 152.275 35.7366 152.07 35.9204C151.864 36.1041 152.783 35.4215 152.275 35.7585L151.938 35.9904C151.454 36.306 150.943 36.5784 150.411 36.8043L151.195 36.4717C150.483 36.7661 149.738 36.9732 148.976 37.0887L149.851 36.9705C149.37 37.0405 148.882 37.0493 148.398 36.9968L149.274 37.1149C149.013 37.0731 148.757 37.0072 148.508 36.918L149.291 37.2462C149.177 37.1981 149.064 37.1193 148.945 37.0756C148.687 36.9793 149.532 37.64 149.173 37.255C148.814 36.8699 149.414 37.5744 149.401 37.5788C149.32 37.4592 149.253 37.3316 149.199 37.1981L149.527 37.9813C149.441 37.7571 149.381 37.5236 149.348 37.2856L149.466 38.1607C149.433 37.8612 149.433 37.5589 149.466 37.2593L149.348 38.1345C149.432 37.5573 149.588 36.9929 149.812 36.4542L149.484 37.2418C150.067 35.9178 150.801 34.6654 151.672 33.5093C151.825 33.3037 152.249 32.9361 151.606 33.5837C151.73 33.444 151.847 33.298 151.956 33.1462C152.198 32.8544 152.443 32.5744 152.691 32.306C153.194 31.759 153.724 31.2427 154.279 30.7439C155.562 29.5974 155.535 27.2433 154.279 26.1056C153.655 25.5073 152.823 25.1733 151.958 25.1733C151.093 25.1733 150.262 25.5073 149.637 26.1056L149.65 26.11Z" fill="white"/>
<path d="M114.977 24.4953C111.397 24.0578 107.757 23.6202 104.155 24.0578C99.9767 24.5741 95.1634 26.0268 92.8267 29.8425C91.4046 32.1616 91.5577 35.3428 93.6231 37.2462C95.2202 38.7164 97.4694 39.2459 99.6003 39.1365C103.538 38.9309 107.372 37.7013 111.03 36.2704C115.012 34.7127 118.928 32.9274 123.116 31.9822L119.077 27.9434C118.823 29.3393 118.639 30.7439 118.464 32.1529C118.287 33.2211 118.221 34.3047 118.267 35.3865C118.433 37.2156 119.287 39.0052 121.05 39.7885C122.454 40.3537 123.957 40.6305 125.47 40.6024C130.493 40.6987 135.276 38.7733 139.73 36.6642C142.01 35.5747 144.259 34.4151 146.591 33.4262L145.804 33.7544C148.071 32.7561 150.458 32.0574 152.905 31.6759L152.03 31.7897L152.227 31.7678C153.129 31.6496 153.873 31.479 154.546 30.8051C154.851 30.5004 155.093 30.1385 155.258 29.7402C155.423 29.3419 155.508 28.915 155.508 28.4838C155.508 28.0527 155.423 27.6257 155.258 27.2274C155.093 26.8291 154.851 26.4673 154.546 26.1625C153.951 25.6199 153.063 25.0948 152.227 25.2042C150.481 25.4045 148.759 25.7693 147.081 26.2938C145.418 26.8484 143.786 27.4941 142.194 28.2278C139.349 29.5012 136.606 30.9889 133.735 32.2097L134.519 31.8772C132.18 32.9103 129.716 33.6326 127.189 34.0257L128.064 33.9075C126.612 34.0938 125.141 34.0938 123.689 33.9075L124.564 34.0257C124.234 33.982 123.909 33.9072 123.592 33.8025L124.376 34.1307C124.244 34.0738 123.662 33.6931 124.153 34.0563C124.38 34.1914 124.564 34.3888 124.682 34.6251C124.628 34.5378 124.583 34.4455 124.546 34.3495L124.875 35.1327C124.805 34.9353 124.756 34.7316 124.726 34.5245L124.844 35.3996C124.708 34.0869 124.971 32.6473 125.141 31.3302L125.028 32.2054C125.139 31.3711 125.268 30.5382 125.417 29.7068C125.632 28.5254 125.461 27.3964 124.577 26.5125C124.163 26.1082 123.651 25.818 123.091 25.67C122.531 25.522 121.943 25.5213 121.383 25.668C114.062 27.3133 107.59 31.5621 100.13 32.5686L101.005 32.4504C100.053 32.5997 99.0854 32.6291 98.1257 32.5379L99.0009 32.6561C98.5718 32.5962 98.1506 32.4891 97.745 32.3366L98.5283 32.6692C98.3594 32.599 98.1957 32.5171 98.0382 32.4242C97.7013 32.2229 97.8282 32.0216 98.2701 32.6211C98.2188 32.5778 98.1706 32.531 98.1257 32.481C97.9507 32.2943 98.0513 32.43 98.4276 32.888C98.3445 32.7261 98.2351 32.5817 98.1607 32.411L98.4889 33.1943C98.415 32.9959 98.3608 32.7907 98.327 32.5817L98.4451 33.4568C98.4254 33.2531 98.4254 33.0479 98.4451 32.8442L98.3095 33.7106C98.3524 33.4553 98.4198 33.2047 98.5108 32.9624L98.1826 33.7456C98.2662 33.5463 98.3642 33.3532 98.4758 33.168L98.6596 32.888C98.3139 33.3256 98.2482 33.4131 98.4627 33.1549C98.6202 32.9886 98.7733 32.818 98.9396 32.6648C99.0271 32.5817 99.6222 32.1003 99.1321 32.4854C98.6421 32.8705 99.259 32.4198 99.3597 32.3541C99.561 32.2316 99.7666 32.1091 99.9723 31.9953C100.384 31.7678 100.804 31.5578 101.232 31.3784L100.449 31.7065C101.85 31.1284 103.322 30.7371 104.825 30.5426L103.998 30.6476C107.656 30.1707 111.354 30.582 114.994 31.0458C115.764 31.1464 116.788 30.6082 117.313 30.0875C117.618 29.7827 117.86 29.4209 118.025 29.0226C118.19 28.6243 118.275 28.1973 118.275 27.7662C118.275 27.335 118.19 26.9081 118.025 26.5098C117.86 26.1115 117.618 25.7496 117.313 25.4449C116.669 24.8744 115.853 24.5356 114.994 24.4822L114.977 24.4953Z" fill="white"/>
<path d="M60.8839 26.0225C58.7748 27.9075 56.9995 30.1355 55.633 32.6123C54.8203 34.0139 54.3036 35.5671 54.1147 37.1762C54.027 38.0485 54.139 38.9293 54.4422 39.7519C54.7455 40.5745 55.232 41.3172 55.865 41.9239C58.5298 44.3524 62.4504 43.6085 65.3997 42.1864C67.9171 40.9405 69.9267 38.8629 71.0881 36.3054C71.8498 34.6374 72.2494 32.827 72.2608 30.9933C72.2345 29.1002 71.8018 27.2349 70.9919 25.5236L65.3034 28.8404C66.7124 31.0283 68.804 32.341 71.2719 33.1155C73.3898 33.7675 75.6476 33.925 77.8355 34.1351C82.6488 34.5726 87.4621 34.8396 92.2754 34.1613C95.0355 33.7682 97.7213 32.9643 100.244 31.7766C101.004 31.3557 101.567 30.6509 101.81 29.8162C102.038 28.9628 101.92 28.0541 101.482 27.2871C100.445 25.6768 98.6596 25.3311 96.9924 26.11C96.6993 26.2456 96.4105 26.3725 96.1173 26.4994L96.9005 26.1669C94.8466 26.9962 92.6954 27.5609 90.4989 27.8471L91.374 27.729C88.6318 28.06 85.8652 28.142 83.1082 27.974C80.4478 27.8384 77.7742 27.624 75.1357 27.2783L76.0108 27.3964C74.6559 27.242 73.3265 26.9141 72.0552 26.4207L72.8384 26.7532C72.5627 26.6307 72.2871 26.5038 72.0245 26.355C71.762 26.2062 71.5344 25.9918 71.2719 25.8693C71.4863 25.97 71.9108 26.3988 71.4819 26.0093C71.3682 25.9087 71.2631 25.8037 71.1625 25.6987C71.0619 25.5936 70.9962 25.5105 70.9175 25.4142C70.7556 25.2173 70.8518 25.3399 71.1975 25.7818L71.0269 25.5236C70.0948 24.0884 68.0776 23.3576 66.5374 24.3466C65.8003 24.782 65.2607 25.4863 65.0321 26.3113C64.8464 27.1669 64.9623 28.0605 65.3603 28.8404L65.4347 29.0023L65.1021 28.2191C65.4257 28.9881 65.6493 29.7954 65.7672 30.6214L65.6491 29.7462C65.7519 30.5759 65.7519 31.4151 65.6491 32.2448L65.7672 31.3696C65.6532 32.1958 65.4356 33.0044 65.1196 33.7763L65.4522 32.993C65.2192 33.5201 64.9395 34.0254 64.6164 34.5026C64.4808 34.7039 64.0957 35.1284 64.7389 34.3714L64.5333 34.6252C64.3376 34.8558 64.1302 35.0764 63.9119 35.2859C63.715 35.4784 63.505 35.6535 63.2993 35.8372C63.028 36.0735 64.0082 35.3384 63.505 35.6753C63.3868 35.7497 63.2774 35.8329 63.1637 35.9072C62.6795 36.2229 62.1685 36.4952 61.6365 36.7211L62.4198 36.3886C61.7079 36.6829 60.963 36.8901 60.2013 37.0055L61.0765 36.8874C60.5938 36.9574 60.1042 36.9662 59.6193 36.9137L60.4945 37.0318C60.2335 36.991 59.977 36.9251 59.7287 36.8349L60.512 37.1631C60.3938 37.1149 60.2801 37.0362 60.1619 36.9924C59.9081 36.8962 60.7526 37.5569 60.3895 37.1718C60.0263 36.7868 60.6301 37.4913 60.6214 37.4956C60.5382 37.3772 60.4691 37.2494 60.4157 37.1149L60.7483 37.8982C60.6619 37.6739 60.6017 37.4405 60.5689 37.2025L60.6826 38.0776C60.652 37.7779 60.652 37.4759 60.6826 37.1762L60.5645 38.0513C60.6484 37.4736 60.8057 36.9089 61.0327 36.3711L60.7001 37.1587C61.2854 35.8355 62.0194 34.5833 62.888 33.4262C63.0412 33.2205 63.4656 32.853 62.8267 33.5006C62.9536 33.3693 63.0587 33.2074 63.1768 33.063C63.4131 32.7786 63.6581 32.4985 63.9075 32.2229C64.4108 31.6759 64.9446 31.1596 65.4959 30.6651C66.1076 30.0473 66.4507 29.2131 66.4507 28.3438C66.4507 27.4745 66.1076 26.6402 65.4959 26.0225C64.8719 25.4245 64.0411 25.0906 63.1768 25.0906C62.3125 25.0906 61.4817 25.4245 60.8577 26.0225H60.8839Z" fill="white"/>
<path d="M25.5193 29.5318C26.072 29.6175 26.6135 29.7643 27.1339 29.9694L26.3506 29.6412C26.821 29.8373 27.2709 30.0791 27.694 30.3632L28.0047 30.582C28.2891 30.7789 27.3396 30.0088 27.764 30.4026C27.9522 30.5776 28.1447 30.7395 28.3241 30.9233C28.5035 31.1071 28.6698 31.2996 28.8361 31.4965C29.1205 31.8334 28.6173 31.2427 28.6041 31.1946C28.6654 31.3086 28.7388 31.4157 28.8229 31.514C29.1196 31.9615 29.3731 32.4362 29.5799 32.9317L29.2474 32.1441C29.4951 32.7587 29.6684 33.4006 29.7637 34.0563L29.6456 33.1812C29.7287 33.8437 29.7287 34.514 29.6456 35.1765L29.7637 34.3013C29.6091 35.2649 29.3357 36.2055 28.9498 37.1018L29.2605 36.3361C28.9144 37.1385 28.5138 37.9162 28.0616 38.6639C27.8428 39.0271 27.624 39.3772 27.3746 39.7229L27.0333 40.1998C26.9676 40.2873 26.902 40.3924 26.832 40.4711C26.9589 40.3311 27.3133 39.8541 26.9808 40.2698C25.8953 41.6054 24.6883 42.8373 23.3752 43.9498C23.0732 44.2124 22.7625 44.4662 22.4519 44.7156C22.2828 44.8737 22.1029 45.0199 21.9137 45.1532C21.8699 45.1794 22.5175 44.7156 22.2375 44.8994L21.8918 45.1619C21.196 45.6782 20.4915 46.1727 19.7739 46.6584C18.3168 47.6386 16.8203 48.5618 15.3194 49.472C13.4566 50.6458 11.515 51.6897 9.50846 52.5963L10.2961 52.2637C8.96207 52.8382 7.56104 53.2425 6.12602 53.467L7.00117 53.3489C6.21297 53.4618 5.41492 53.4897 4.62077 53.432L5.49592 53.5502C5.3475 53.5289 5.20113 53.4953 5.05834 53.4495L5.8416 53.7821C5.54405 53.6421 5.64032 53.734 6.12165 54.0665C6.4367 54.5303 6.51546 54.6135 6.35794 54.3159L6.69049 55.1036C6.59238 54.8373 6.522 54.5616 6.48046 54.2809L6.5986 55.1561C6.55258 54.7738 6.55258 54.3875 6.5986 54.0053L6.48046 54.8804C6.55274 54.3882 6.68804 53.9073 6.88302 53.4495L6.55047 54.2328C6.76295 53.7593 7.01164 53.3028 7.29434 52.8676C7.43437 52.6575 7.64003 52.5875 7.10181 53.1082C7.18057 53.0295 7.25496 52.9157 7.32935 52.8326C7.52188 52.6006 7.72754 52.395 7.94195 52.1674C8.30068 51.8056 8.67903 51.4638 9.07526 51.1435C9.28968 50.9685 9.62223 50.8504 8.89586 51.2748C9.00525 51.2092 9.11902 51.1085 9.21966 51.0341C9.48658 50.8372 9.76225 50.6403 10.0379 50.4478C12.0106 49.1093 14.0558 47.8808 16.1639 46.7678C20.4522 44.4443 24.7666 42.147 29.1511 39.9985C31.6584 38.769 34.192 37.5963 36.7649 36.498L35.9773 36.8261C42.5015 34.1001 49.3013 31.9603 56.3025 30.9802L55.4274 31.0852C59.083 30.5801 62.7806 30.4482 66.463 30.6914C68.1783 30.8095 69.8191 29.0942 69.7448 27.4096C69.7247 26.5455 69.3725 25.7223 68.7614 25.1112C68.1502 24.5 67.3271 24.1478 66.463 24.1278C57.1777 23.4889 47.7611 25.4317 39.0446 28.6173C30.2275 31.8422 21.9093 36.2398 13.6654 40.6724C11.6832 41.7357 9.72725 42.8209 7.82381 44.0505C5.92036 45.28 3.92503 46.6759 2.47229 48.4656C0.669487 50.706 -0.406942 53.2789 0.170654 56.1887C0.525088 57.9872 1.88594 59.5843 3.75438 59.8731C5.22334 60.0683 6.71416 60.0254 8.16949 59.7462C10.4492 59.3874 12.6327 58.4335 14.6762 57.4008C16.4834 56.4644 18.2643 55.3705 20.0233 54.2765C23.4495 52.1674 26.8451 49.8746 29.7068 47.0347C32.9099 43.8579 35.6359 39.7623 36.1742 35.1984C36.7036 30.8226 34.1263 26.3069 30.2713 24.2591C29.3298 23.7552 28.3156 23.4009 27.2652 23.2089C26.4099 23.0054 25.5096 23.1237 24.736 23.5414C24.0015 23.9788 23.4616 24.6799 23.2264 25.5018C22.8676 27.0901 23.7121 29.2343 25.5193 29.5406V29.5318Z" fill="white"/>
</g>
<defs>
<clipPath id="clip0">
<rect width="190.694" height="60" fill="white"/>
</clipPath>
</defs>
</svg>
