<svg width="15" height="14" viewBox="0 0 15 14" fill="none" xmlns="http://www.w3.org/2000/svg">
<path d="M7.17741 1.79349e-09C5.47313 -3.80804e-05 3.82444 0.606392 2.52639 1.71077C1.22834 2.81515 0.365645 4.3454 0.0926746 6.02768C-0.180296 7.70996 0.154279 9.43448 1.03653 10.8926C1.91877 12.3508 3.29112 13.4474 4.90797 13.9863C5.26683 14.0494 5.40104 13.8341 5.40104 13.6454C5.40104 13.4753 5.39243 12.9097 5.39243 12.309C3.58879 12.6405 3.12227 11.869 2.97873 11.4656C2.8195 11.0729 2.567 10.7248 2.24306 10.4515C1.99186 10.3173 1.633 9.98497 2.23373 9.97635C2.46332 10.0012 2.68353 10.081 2.87569 10.2091C3.06785 10.3372 3.22629 10.5097 3.33759 10.712C3.43572 10.8883 3.56769 11.0436 3.72592 11.1688C3.88416 11.2941 4.06555 11.3868 4.25971 11.4418C4.45386 11.4968 4.65697 11.513 4.85738 11.4894C5.05778 11.4657 5.25156 11.4028 5.4276 11.3041C5.45869 10.9391 5.62143 10.5978 5.88551 10.3438C4.28857 10.1644 2.61987 9.54572 2.61987 6.80043C2.6097 6.08699 2.87292 5.39671 3.35553 4.87119C3.13613 4.25123 3.16181 3.57088 3.42731 2.96922C3.42731 2.96922 4.02804 2.78118 5.40104 3.70489C6.57544 3.38188 7.81526 3.38188 8.98966 3.70489C10.3619 2.77185 10.9634 2.96922 10.9634 2.96922C11.229 3.57087 11.2546 4.25124 11.0352 4.87119C11.5192 5.39581 11.7827 6.0867 11.7708 6.80043C11.7708 9.55433 10.0928 10.1644 8.49587 10.3438C8.66716 10.5174 8.79908 10.7259 8.88267 10.955C8.96627 11.1841 8.99957 11.4285 8.98033 11.6716C8.98033 12.6319 8.97172 13.4035 8.97172 13.6454C8.97172 13.8341 9.10593 14.058 9.46479 13.9863C11.0787 13.4429 12.4469 12.3437 13.3253 10.8848C14.2037 9.42595 14.535 7.7024 14.2602 6.02183C13.9853 4.34127 13.1222 2.81307 11.8248 1.71003C10.5274 0.607 8.8803 0.000925908 7.17741 1.79349e-09Z" fill="white"/>
</svg>
