<svg width="16" height="10" viewBox="0 0 16 10" fill="none" xmlns="http://www.w3.org/2000/svg">
<path d="M14.3039 0.507061H10.2906V1.6232H14.3198L14.3039 0.507061ZM13.4569 8.18544C13.1525 8.38717 12.7929 8.4895 12.4279 8.47832C12.1862 8.50352 11.942 8.47855 11.7104 8.405C11.4789 8.33145 11.265 8.21089 11.0822 8.05087C10.7442 7.66764 10.5682 7.16813 10.5914 6.65768H15.8317C15.8695 6.12617 15.8241 5.59202 15.6971 5.07451C15.5743 4.58216 15.3595 4.1175 15.0639 3.70507C14.7663 3.305 14.382 2.97753 13.9398 2.74725C13.4478 2.50466 12.9051 2.38256 12.3566 2.39103C11.8408 2.38726 11.3294 2.48684 10.8526 2.68392C10.4161 2.86796 10.0205 3.13705 9.689 3.47551C9.35843 3.82073 9.10245 4.23029 8.93699 4.67871C8.75944 5.16281 8.67094 5.67504 8.67577 6.19064C8.66763 6.71357 8.75342 7.23371 8.92908 7.72632C9.07828 8.1724 9.31511 8.58417 9.62567 8.93744C9.94698 9.28428 10.3419 9.55476 10.7814 9.72903C11.2715 9.91575 11.7927 10.0071 12.3171 9.99817C13.0528 10.0211 13.7792 9.8285 14.4068 9.44406C15.0408 8.99354 15.4973 8.33547 15.6971 7.58383H13.9477C13.8541 7.8325 13.6817 8.04375 13.4569 8.18544ZM10.7418 4.92411C10.8034 4.72675 10.9057 4.54449 11.042 4.38906C11.1784 4.23364 11.3457 4.10849 11.5334 4.0217C11.7819 3.90984 12.0525 3.85571 12.325 3.86338C12.5218 3.84657 12.7199 3.87253 12.9057 3.93949C13.0915 4.00644 13.2607 4.11279 13.4015 4.25126C13.6705 4.58051 13.8431 4.97777 13.9002 5.39906H10.6152C10.628 5.23819 10.6571 5.07905 10.7022 4.92411H10.7418ZM6.55432 4.54414C6.95721 4.37638 7.30729 4.10288 7.56755 3.75256C7.80679 3.38052 7.92564 2.94382 7.90793 2.50186C7.92345 2.09881 7.84485 1.69769 7.67837 1.33031C7.53851 1.01203 7.31399 0.738224 7.02927 0.538724C6.72741 0.331308 6.38461 0.190952 6.02396 0.1271C5.59716 0.0375825 5.16182 -0.00488877 4.72576 0.000446736H0V9.95859H4.82867C5.26934 9.95891 5.70825 9.90304 6.13478 9.79235C6.53908 9.68776 6.92211 9.51366 7.26675 9.27782C7.60059 9.04645 7.87243 8.73656 8.05834 8.37542C8.26408 7.97154 8.3648 7.52236 8.35122 7.0693C8.36621 6.50786 8.20874 5.95532 7.90002 5.48613C7.56802 5.01429 7.0756 4.67944 6.51474 4.54414H6.55432ZM2.19269 1.70235H4.2429C4.43125 1.70212 4.61928 1.71801 4.80492 1.74985C4.97586 1.77518 5.14003 1.83439 5.28779 1.924C5.43055 2.00475 5.54623 2.12594 5.62025 2.2723C5.71194 2.4478 5.75563 2.64442 5.74691 2.84224C5.76166 3.01262 5.7356 3.18406 5.6709 3.34236C5.6062 3.50067 5.50472 3.64128 5.37486 3.75256C5.09157 3.94731 4.75258 4.04457 4.40913 4.02961H2.19269V1.70235ZM6.02396 7.59175C5.94263 7.75308 5.81965 7.88973 5.66775 7.98754C5.50967 8.08586 5.33549 8.15553 5.15322 8.19335C4.95062 8.2387 4.74337 8.25996 4.53578 8.25668H2.16103V5.52571H4.53578C4.9433 5.50786 5.34575 5.62166 5.68358 5.85026C5.83621 5.98723 5.95444 6.15821 6.0287 6.34937C6.10296 6.54052 6.13117 6.74648 6.11104 6.95056C6.13244 7.16816 6.10262 7.38774 6.02396 7.59175Z" fill="white"/>
</svg>
