<svg width="14" height="14" viewBox="0 0 14 14" fill="none" xmlns="http://www.w3.org/2000/svg">
<path d="M13.23 0H0.77C0.565783 0 0.369931 0.0811248 0.225528 0.225528C0.0811248 0.369931 0 0.565783 0 0.77V13.23C0 13.4342 0.0811248 13.6301 0.225528 13.7745C0.369931 13.9189 0.565783 14 0.77 14H7.476V8.575H5.656V6.475H7.476V4.9C7.4383 4.53023 7.48195 4.15669 7.6039 3.80558C7.72585 3.45446 7.92314 3.13428 8.18193 2.86749C8.44072 2.60069 8.75474 2.39375 9.10198 2.26117C9.44921 2.12858 9.82125 2.07358 10.192 2.1C10.7368 2.09665 11.2814 2.12469 11.823 2.184V4.074H10.71C9.828 4.074 9.66 4.494 9.66 5.103V6.454H11.76L11.487 8.554H9.66V14H13.23C13.3311 14 13.4312 13.9801 13.5247 13.9414C13.6181 13.9027 13.703 13.846 13.7745 13.7745C13.846 13.703 13.9027 13.6181 13.9414 13.5247C13.9801 13.4312 14 13.3311 14 13.23V0.77C14 0.668882 13.9801 0.568754 13.9414 0.475334C13.9027 0.381913 13.846 0.297029 13.7745 0.225528C13.703 0.154027 13.6181 0.0973089 13.5247 0.0586128C13.4312 0.0199167 13.3311 0 13.23 0Z" fill="white"/>
</svg>
