<svg width="14" height="14" viewBox="0 0 14 14" fill="none" xmlns="http://www.w3.org/2000/svg">
<path d="M12.8868 9.78802e-05H1.02899C0.895692 -0.00175333 0.76334 0.0226708 0.639487 0.0719755C0.515634 0.12128 0.402707 0.1945 0.307154 0.287452C0.211601 0.380405 0.135295 0.49127 0.0825932 0.613716C0.0298913 0.736162 0.00182585 0.86779 0 1.00108V12.9989C0.00182585 13.1322 0.0298913 13.2638 0.0825932 13.3863C0.135295 13.5087 0.211601 13.6196 0.307154 13.7125C0.402707 13.8055 0.515634 13.8787 0.639487 13.928C0.76334 13.9773 0.895692 14.0018 1.02899 13.9999H12.8868C13.0201 14.0018 13.1525 13.9773 13.2763 13.928C13.4002 13.8787 13.5131 13.8055 13.6087 13.7125C13.7042 13.6196 13.7805 13.5087 13.8332 13.3863C13.8859 13.2638 13.914 13.1322 13.9158 12.9989V1.00108C13.914 0.86779 13.8859 0.736162 13.8332 0.613716C13.7805 0.49127 13.7042 0.380405 13.6087 0.287452C13.5131 0.1945 13.4002 0.12128 13.2763 0.0719755C13.1525 0.0226708 13.0201 -0.00175333 12.8868 9.78802e-05ZM4.22094 11.7179H2.12097V5.41802H4.22094V11.7179ZM3.17096 4.53603C2.88134 4.53603 2.60359 4.42099 2.39881 4.2162C2.19402 4.01141 2.07897 3.73366 2.07897 3.44405C2.07897 3.15444 2.19402 2.87669 2.39881 2.6719C2.60359 2.46711 2.88134 2.35207 3.17096 2.35207C3.32474 2.33462 3.48047 2.34986 3.62796 2.39678C3.77545 2.4437 3.91136 2.52125 4.0268 2.62433C4.14224 2.72742 4.23461 2.85373 4.29785 2.99499C4.36109 3.13625 4.39378 3.28928 4.39378 3.44405C4.39378 3.59882 4.36109 3.75185 4.29785 3.89311C4.23461 4.03437 4.14224 4.16068 4.0268 4.26377C3.91136 4.36685 3.77545 4.4444 3.62796 4.49132C3.48047 4.53824 3.32474 4.55347 3.17096 4.53603ZM11.7948 11.7179H9.69487V8.33698C9.69487 7.48999 9.39387 6.937 8.63088 6.937C8.39475 6.93873 8.16482 7.0128 7.97207 7.14922C7.77933 7.28564 7.63303 7.47787 7.5529 7.69999C7.49812 7.86452 7.47438 8.03779 7.4829 8.21098V11.7109H5.38293V5.41102H7.4829V6.30001C7.67366 5.96899 7.95113 5.69628 8.28539 5.51126C8.61966 5.32624 8.99807 5.23592 9.37987 5.25002C10.7799 5.25002 11.7948 6.15301 11.7948 8.09199V11.7179Z" fill="white"/>
</svg>
