<svg width="14" height="14" viewBox="0 0 14 14" xmlns="http://www.w3.org/2000/svg">
<path d="M10.2072 8.40699C10.0674 8.33708 9.15855 7.9176 9.01873 7.84769C8.8789 7.77778 8.73908 7.77778 8.59925 7.9176C8.45943 8.05743 8.17978 8.4769 8.03995 8.61673C7.97004 8.75655 7.83021 8.75655 7.69039 8.68664C7.201 8.4769 6.71161 8.19725 6.29214 7.84769C5.94257 7.49813 5.59301 7.07865 5.31336 6.65918C5.24345 6.51935 5.31336 6.37953 5.38327 6.30961C5.45318 6.2397 5.5231 6.09988 5.66292 6.02996C5.73283 5.96005 5.80275 5.82022 5.80275 5.75031C5.87266 5.6804 5.87266 5.54057 5.80275 5.47066C5.73283 5.40075 5.38327 4.5618 5.24345 4.21223C5.17353 3.72285 5.03371 3.72285 4.89388 3.72285H4.54432C4.40449 3.72285 4.19476 3.86267 4.12484 3.93258C3.70537 4.35206 3.49563 4.84145 3.49563 5.40075C3.56554 6.02996 3.77528 6.65918 4.19476 7.21848C4.9638 8.33708 5.94257 9.24594 7.13109 9.80524C7.48065 9.94507 7.7603 10.0849 8.10986 10.1548C8.45943 10.2946 8.80899 10.2946 9.22847 10.2247C9.71785 10.1548 10.1373 9.80524 10.417 9.38577C10.5568 9.10612 10.5568 8.82647 10.4869 8.54682L10.2072 8.40699ZM11.9551 2.04494C9.22847 -0.681648 4.82397 -0.681648 2.09738 2.04494C-0.139825 4.28215 -0.559301 7.70786 0.978777 10.4345L0 14L3.70537 13.0212C4.75406 13.5805 5.87266 13.8602 6.99126 13.8602C10.8365 13.8602 13.9126 10.784 13.9126 6.93883C13.9825 5.1211 13.2135 3.37328 11.9551 2.04494ZM10.0674 11.8327C9.15855 12.392 8.10986 12.7416 6.99126 12.7416C5.94257 12.7416 4.9638 12.4619 4.05493 11.9725L3.84519 11.8327L1.6779 12.392L2.2372 10.2946L2.09738 10.0849C0.419476 7.28839 1.25843 3.79276 3.98502 2.04494C6.71161 0.297129 10.2072 1.20599 11.8851 3.86267C13.563 6.58926 12.794 10.1548 10.0674 11.8327Z" fill="white"/>
</svg>
